<svg xmlns="http://www.w3.org/2000/svg" xmlns:xlink="http://www.w3.org/1999/xlink" version="1.1" x="0px" y="0px" viewBox="0 0 100 125" enable-background="new 0 0 100 100" xml:space="preserve"><g><path d="M93.764,39.408l-0.072-0.032L51.646,21.359c-0.033-0.013-0.066-0.017-0.098-0.026c-0.211-0.074-0.426-0.109-0.643-0.097   c-0.036,0.003-0.068,0.006-0.103,0.01c-0.114,0.015-0.232-0.005-0.343,0.034l-12.996,4.577L24.478,7.365l-3.926,3.083   l12.563,16.941l-3.006,1.06L14.337,8.835l-3.724,3.339l15.111,17.819L7.021,36.581l-0.685,0.242   C5.688,37.052,5.25,37.67,5.25,38.357v34.6c0,0.244,0.066,0.476,0.169,0.691c0.173,0.276,0.423,0.505,0.736,0.637l0.685,0.293   L47.995,92.22c0.04,0.033,0.059,0.083,0.101,0.114c0.283,0.202,0.612,0.301,0.942,0.301c0.181,0,0.366-0.028,0.541-0.09   l43.894-15.461l0.232-0.083c0.146-0.053,0.279-0.131,0.402-0.219c0.039-0.028,0.072-0.059,0.104-0.09   c0.062-0.053,0.115-0.111,0.168-0.174c0.234-0.284,0.371-0.64,0.371-1.013v-34.6C94.75,40.256,94.359,39.669,93.764,39.408z    M11.535,38.448l16.446-5.793L45.09,52.832L11.535,38.448z M49.374,52.4L32.276,31.141l2.872-1.011l14.226,19.184V52.4z    M49.374,42.811l-9.962-14.183l9.962-3.51V42.811z M52.631,25.332l35.971,15.413L55.988,52.233l-3.357-4.783V25.332z    M91.531,74.308l-2.93,1.032L50.668,88.703V59.41v-0.149v-0.179v-1.518l1.963-0.691l0.264-0.094l0.367-0.129l1.23-0.435   l3.443-1.212l33.555-11.82l0.041-0.015V74.308z"/></g><text x="0" y="115" fill="#000000" font-size="5px" font-weight="bold" font-family="'Helvetica Neue', Helvetica, Arial-Unicode, Arial, Sans-serif">Created by Ryan Choi</text><text x="0" y="120" fill="#000000" font-size="5px" font-weight="bold" font-family="'Helvetica Neue', Helvetica, Arial-Unicode, Arial, Sans-serif">from the Noun Project</text></svg>